<svg width="21" height="19" viewBox="0 0 21 19" fill="none" xmlns="http://www.w3.org/2000/svg">
<path d="M4.60889 14.2801H1.83111C1.46074 14.2801 1.18296 14.1875 0.997779 14.0023C0.812594 13.8171 0.720001 13.5393 0.720001 13.1689V1.2245C0.720001 1.03931 0.812594 0.85413 0.997779 0.668945C1.18296 0.483759 1.46074 0.391167 1.83111 0.391167H19.6089C19.9793 0.391167 20.257 0.483759 20.4422 0.668945C20.6274 0.85413 20.72 1.03931 20.72 1.2245V13.1689C20.72 13.5393 20.6274 13.8171 20.4422 14.0023C20.257 14.1875 19.9793 14.2801 19.6089 14.2801H16.8311V15.3912H18.7756C18.9607 15.3912 19.1459 15.4838 19.3311 15.6689C19.5163 15.8541 19.6089 16.0856 19.6089 16.3634C19.6089 16.6412 19.5163 16.8726 19.3311 17.0578C19.1459 17.243 18.9607 17.3356 18.7756 17.3356H16.8311C16.8311 17.5208 16.6922 17.706 16.4144 17.8912C16.1367 18.0764 15.9052 18.1689 15.72 18.1689H5.72C5.53482 18.1689 5.30333 18.0764 5.02556 17.8912C4.74778 17.706 4.60889 17.5208 4.60889 17.3356H2.66445C2.47926 17.3356 2.29408 17.243 2.10889 17.0578C1.9237 16.8726 1.83111 16.6412 1.83111 16.3634C1.83111 16.0856 1.9237 15.8541 2.10889 15.6689C2.29408 15.4838 2.47926 15.3912 2.66445 15.3912H4.60889V14.2801ZM4.60889 12.3356V9.28006C4.60889 9.09487 4.74778 8.86339 5.02556 8.58561C5.30333 8.30783 5.53482 8.16895 5.72 8.16895H8.77556V6.2245C8.77556 6.03932 8.86815 5.85413 9.05334 5.66894C9.23852 5.48376 9.42371 5.39117 9.60889 5.39117H15.72C15.9052 5.39117 16.1367 5.48376 16.4144 5.66894C16.6922 5.85413 16.8311 6.03932 16.8311 6.2245V12.3356H18.7756V2.33561H2.66445V12.3356H4.60889ZM10.72 16.2245H14.6089V7.33561H10.72V16.2245ZM6.83111 10.3912V16.2245H8.77556V10.3912H6.83111ZM11.8311 14.2801H13.7756V15.3912H11.8311V14.2801Z" fill="white"/>
</svg>
