<svg width="17" height="21" viewBox="0 0 17 21" fill="none" xmlns="http://www.w3.org/2000/svg">
<path d="M16.472 6.84403C14.981 7.91503 14.235 9.20403 14.235 10.711C14.235 12.516 15.157 13.901 17 14.866C16.505 16.32 15.789 17.586 14.85 18.664C13.914 19.74 13.057 20.28 12.282 20.28C11.917 20.28 11.419 20.158 10.787 19.913L10.484 19.794C9.866 19.55 9.318 19.427 8.843 19.427C8.393 19.427 7.902 19.523 7.368 19.715L6.987 19.854L6.507 20.052C6.13 20.204 5.749 20.28 5.365 20.28C4.459 20.28 3.46 19.523 2.365 18.01C0.788 15.84 0 13.477 0 10.92C0 9.10203 0.492 7.63703 1.475 6.52703C2.459 5.41703 3.761 4.86103 5.383 4.86103C5.989 4.86103 6.556 4.97303 7.083 5.19803L7.445 5.34703L7.825 5.50603C8.165 5.65103 8.438 5.72403 8.647 5.72403C8.914 5.72403 9.21 5.66103 9.536 5.53503L10.034 5.33703L10.405 5.19803C10.998 4.98003 11.652 4.87103 12.369 4.87103C14.069 4.87103 15.437 5.52903 16.472 6.84403ZM12.447 0.280029C12.467 0.511029 12.477 0.690029 12.477 0.815029C12.477 1.95903 12.067 2.96203 11.245 3.82503C10.425 4.68803 9.471 5.11903 8.383 5.11903C8.35 4.86103 8.333 4.67603 8.333 4.56403C8.333 3.59203 8.715 2.68003 9.477 1.82703C10.239 0.974029 11.122 0.475029 12.125 0.330029C12.196 0.316029 12.304 0.300029 12.447 0.280029Z" fill="white"/>
</svg>
