<svg width="15" height="17" viewBox="0 0 15 17" fill="none" xmlns="http://www.w3.org/2000/svg">
<path d="M8 3.10667V10.8844C8 11.0326 7.88889 11.1807 7.66667 11.3289C7.44444 11.477 7.25926 11.5511 7.11111 11.5511C6.96296 11.5511 6.77778 11.477 6.55556 11.3289C6.33333 11.1807 6.22222 11.0326 6.22222 10.8844V3.10667L5.33333 4.21778C5.18519 4.36593 5 4.44 4.77778 4.44C4.55556 4.44 4.37037 4.36593 4.22222 4.21778C4.07407 4.06963 4 3.88445 4 3.66222C4 3.44 4.07407 3.25482 4.22222 3.10667L6.44444 0.662225C6.74074 0.514076 6.96296 0.440002 7.11111 0.440002C7.25926 0.440002 7.48148 0.514076 7.77778 0.662225L10 3.10667C10.1481 3.25482 10.2222 3.44 10.2222 3.66222C10.2222 3.88445 10.1481 4.06963 10 4.21778C9.85185 4.36593 9.66667 4.44 9.44444 4.44C9.22222 4.44 9.03704 4.36593 8.88889 4.21778L8 3.10667ZM0.666667 8.44C0.962963 8.44 1.18519 8.51408 1.33333 8.66222C1.48148 8.81037 1.55556 9.0326 1.55556 9.32889V13.3289L1.77778 13.9956C1.92593 14.2919 2.14815 14.5141 2.44444 14.6622L3.11111 14.8844H11.1111L11.7778 14.6622C12.0741 14.5141 12.2963 14.2919 12.4444 13.9956L12.6667 13.3289V9.32889C12.6667 9.0326 12.7407 8.81037 12.8889 8.66222C13.037 8.51408 13.2222 8.44 13.4444 8.44C13.6667 8.44 13.8519 8.51408 14 8.66222C14.1481 8.81037 14.2222 9.0326 14.2222 9.32889V13.5511C14.2222 13.9956 14.1111 14.44 13.8889 14.8844C13.6667 15.3289 13.2963 15.6993 12.7778 15.9956C12.2593 16.2919 11.7778 16.44 11.3333 16.44H2.88889C2.44444 16.44 1.96296 16.2919 1.44444 15.9956C0.925926 15.6993 0.555556 15.3289 0.333333 14.8844C0.111111 14.44 0 13.9956 0 13.5511V9.32889C0 9.0326 0.0740741 8.81037 0.222222 8.66222C0.37037 8.51408 0.518519 8.44 0.666667 8.44Z" fill="white"/>
</svg>
