<svg width="17" height="15" viewBox="0 0 17 15" fill="none" xmlns="http://www.w3.org/2000/svg">
<path d="M8.15991 2.32892H14.1599C14.7525 2.32892 15.234 2.55114 15.6044 2.99559C15.9747 3.44003 16.1599 3.88447 16.1599 4.32892V12.3289C16.1599 12.9215 15.9747 13.403 15.6044 13.7734C15.234 14.1437 14.7525 14.3289 14.1599 14.3289H2.15991C1.56732 14.3289 1.08584 14.1437 0.715468 13.7734C0.345097 13.403 0.159912 12.9215 0.159912 12.3289V1.44003C0.159912 1.14373 0.271023 0.884474 0.493245 0.662251C0.715468 0.440029 0.974727 0.328918 1.27102 0.328918H7.27102C7.41917 0.328918 7.60436 0.440029 7.82658 0.662251C8.0488 0.884474 8.15991 1.14373 8.15991 1.44003V2.32892ZM2.15991 2.32892V12.3289H14.1599V4.32892H8.15991C7.56732 4.32892 7.08584 4.14373 6.71547 3.77336C6.3451 3.40299 6.15991 2.92151 6.15991 2.32892H2.15991ZM6.15991 5.88447L11.271 8.32892L6.15991 10.9956V5.88447Z" fill="white"/>
</svg>
