<svg width="312" height="313" viewBox="0 0 312 313" fill="none" xmlns="http://www.w3.org/2000/svg">
<g filter="url(#filter0_d_1_813)">
<rect x="104" y="104.28" width="104" height="104" rx="20" fill="url(#paint0_linear_1_813)" shape-rendering="crispEdges"/>
<g clip-path="url(#clip0_1_813)">
<path d="M152.111 168.724L152.889 173.391C153.407 175.465 153.407 177.021 152.889 178.058C152.37 179.095 151.074 179.873 149 180.391H146.667C145.63 180.391 144.852 180.132 144.333 179.613L143.556 178.836L139.667 164.836L136.556 164.058C135.519 163.539 134.87 163.021 134.611 162.502C134.352 161.984 134.222 161.465 134.222 160.947V148.502C134.222 147.984 134.352 147.465 134.611 146.947C134.87 146.428 135.519 145.91 136.556 145.391L147.444 142.28C147.963 142.28 148.352 142.28 148.611 142.28C148.87 142.28 149.13 142.539 149.389 143.058C149.648 143.576 149.648 143.965 149.389 144.224C149.13 144.484 148.741 144.613 148.222 144.613L137.333 148.502V160.947L156 166.391C156 166.391 156.13 166.65 156.389 167.169C156.648 167.687 156.778 168.076 156.778 168.336C156.778 168.595 156.519 168.854 156 169.113C155.481 169.373 155.222 169.502 155.222 169.502L152.111 168.724ZM148.222 167.169L143.556 165.613L146.667 178.058L149.778 177.28C150.296 176.761 150.556 176.243 150.556 175.724L148.222 167.169ZM163 140.724C162.481 140.724 161.963 140.595 161.444 140.336C160.926 140.076 160.796 139.687 161.056 139.169C161.315 138.65 161.704 138.132 162.222 137.613L177 132.947C178.556 132.428 179.981 132.558 181.278 133.336C182.574 134.113 183.481 135.28 184 136.836V171.836C184 173.391 183.481 174.687 182.444 175.724C181.407 176.761 180.111 177.28 178.556 177.28L170.778 174.947C170.259 174.428 170 173.91 170 173.391C170 172.873 170.259 172.484 170.778 172.224C171.296 171.965 171.815 171.836 172.333 171.836L178.556 174.169C179.074 174.169 179.593 173.91 180.111 173.391C180.63 172.873 180.889 172.354 180.889 171.836V138.391C180.889 137.354 180.63 136.706 180.111 136.447C179.593 136.187 179.074 136.058 178.556 136.058L163 140.724ZM129.556 144.613C130.074 144.613 130.463 144.873 130.722 145.391C130.981 145.91 131.111 146.169 131.111 146.169V163.28C131.111 163.799 130.981 164.187 130.722 164.447C130.463 164.706 130.074 164.836 129.556 164.836C129.037 164.836 128.648 164.706 128.389 164.447C128.13 164.187 128 163.799 128 163.28V146.169C128 146.169 128.13 145.91 128.389 145.391C128.648 144.873 129.037 144.613 129.556 144.613Z" fill="white"/>
</g>
<g clip-path="url(#clip1_1_813)">
<path d="M129.556 129.058C130.074 128.539 130.463 128.41 130.722 128.669C130.981 128.928 131.111 129.317 131.111 129.836L145.111 181.947C145.111 182.465 145.111 182.854 145.111 183.113C145.111 183.373 144.852 183.632 144.333 183.891C143.815 184.151 143.426 184.151 143.167 183.891C142.907 183.632 142.519 183.243 142 182.725L128 130.613C128 130.095 128.13 129.706 128.389 129.447C128.648 129.188 129.037 129.058 129.556 129.058Z" fill="white"/>
</g>
</g>
<defs>
<filter id="filter0_d_1_813" x="0" y="0.280029" width="312" height="312" filterUnits="userSpaceOnUse" color-interpolation-filters="sRGB">
<feFlood flood-opacity="0" result="BackgroundImageFix"/>
<feColorMatrix in="SourceAlpha" type="matrix" values="0 0 0 0 0 0 0 0 0 0 0 0 0 0 0 0 0 0 127 0" result="hardAlpha"/>
<feOffset/>
<feGaussianBlur stdDeviation="52"/>
<feComposite in2="hardAlpha" operator="out"/>
<feColorMatrix type="matrix" values="0 0 0 0 0.658824 0 0 0 0 0.411765 0 0 0 0 0.941176 0 0 0 1 0"/>
<feBlend mode="normal" in2="BackgroundImageFix" result="effect1_dropShadow_1_813"/>
<feBlend mode="normal" in="SourceGraphic" in2="effect1_dropShadow_1_813" result="shape"/>
</filter>
<linearGradient id="paint0_linear_1_813" x1="156" y1="104.28" x2="156" y2="208.28" gradientUnits="userSpaceOnUse">
<stop stop-color="#A869F0"/>
<stop offset="1" stop-color="#834CC2"/>
</linearGradient>
<clipPath id="clip0_1_813">
<rect width="56" height="56" fill="white" transform="matrix(1 0 0 -1 128 184.28)"/>
</clipPath>
<clipPath id="clip1_1_813">
<rect width="56" height="56" fill="white" transform="matrix(1 0 0 -1 128 184.28)"/>
</clipPath>
</defs>
</svg>
