<svg width="16" height="15" viewBox="0 0 16 15" fill="none" xmlns="http://www.w3.org/2000/svg">
<path d="M5.77736 14.68H8.86423V9.25411C8.86423 8.96371 8.88423 8.67363 8.96575 8.46603C9.18895 7.88585 9.69687 7.28495 10.5496 7.28495C11.6665 7.28495 12.1134 8.17595 12.1134 9.48211V14.68H15.2V9.10891C15.2 6.12456 13.6771 4.73588 11.6461 4.73588C9.98087 4.73588 9.24983 5.70968 8.84367 6.37296H8.86431V4.96388H5.77744C5.81795 5.87557 5.77736 14.68 5.77736 14.68ZM4.06933 14.68V4.96388H0.982468V14.68H4.06933ZM2.52588 3.6373C3.60234 3.6373 4.27234 2.89121 4.27234 1.95881C4.25228 1.00542 3.60234 0.280029 2.54631 0.280029C1.49038 0.280029 0.799988 1.00542 0.799988 1.95881C0.799988 2.89121 1.46984 3.6373 2.50576 3.6373H2.52588Z" fill="white"/>
</svg>
