<svg width="15" height="14" viewBox="0 0 15 14" fill="none" xmlns="http://www.w3.org/2000/svg">
<path d="M7.18506 0.333323C6.90728 0.333323 6.59478 0.43749 6.24756 0.645823C5.90034 0.854156 5.65728 1.09721 5.51839 1.37499L4.47673 2.83332C4.33784 2.97221 4.1295 3.04166 3.85173 3.04166L2.39339 3.24999C1.97673 3.38888 1.6295 3.52777 1.35173 3.66666C1.07395 3.80555 0.865614 4.08332 0.726725 4.49999C0.448947 5.19443 0.310059 6.02777 0.310059 6.99999C0.310059 7.97221 0.448947 8.80555 0.726725 9.49999C0.865614 9.91666 1.07395 10.1944 1.35173 10.3333C1.6295 10.4722 1.97673 10.6111 2.39339 10.75L3.85173 10.9583C4.1295 10.9583 4.33784 11.0278 4.47673 11.1667L5.51839 12.625C5.65728 12.9028 5.90034 13.1458 6.24756 13.3542C6.59478 13.5625 6.97673 13.6319 7.39339 13.5625C7.81006 13.493 8.192 13.3542 8.53922 13.1458C8.88645 12.9375 9.1295 12.5555 9.26839 12C9.54617 10.75 9.68506 9.08332 9.68506 6.99999C9.68506 4.91666 9.54617 3.24999 9.26839 1.99999C9.1295 1.44443 8.88645 1.06249 8.53922 0.854156C8.192 0.645823 7.74061 0.541656 7.18506 0.541656V0.333323ZM6.56006 2.20832C6.69895 1.93055 6.90728 1.79166 7.18506 1.79166C7.46284 1.79166 7.63645 1.82638 7.70589 1.89582C7.77534 1.96527 7.81006 2.06943 7.81006 2.20832C8.08784 3.45832 8.22673 5.05555 8.22673 6.99999C8.22673 8.94443 8.08784 10.5417 7.81006 11.7917C7.81006 11.9305 7.77534 12.0347 7.70589 12.1042C7.63645 12.1736 7.46284 12.2083 7.18506 12.2083C6.90728 12.2083 6.69895 12.0694 6.56006 11.7917L5.51839 10.3333C5.24061 9.91666 4.7545 9.63888 4.06006 9.49999L2.39339 9.29166C2.2545 9.29166 2.11561 9.22221 1.97673 9.08332C1.83784 8.38888 1.76839 7.69443 1.76839 6.99999C1.76839 6.30555 1.83784 5.6111 1.97673 4.91666C2.11561 4.77777 2.2545 4.70832 2.39339 4.70832L4.06006 4.49999C4.7545 4.3611 5.24061 4.08332 5.51839 3.66666L6.56006 2.20832ZM12.6017 3.45832C12.4628 3.31943 12.3239 3.24999 12.1851 3.24999C12.0462 3.24999 11.9073 3.31943 11.7684 3.45832C11.6295 3.59721 11.5601 3.77082 11.5601 3.97916C11.5601 4.18749 11.6295 4.3611 11.7684 4.49999C12.6017 5.19443 13.0184 5.9236 13.0184 6.68749C13.0184 7.45138 12.9142 8.00693 12.7059 8.35416C12.4976 8.70138 12.1851 9.08332 11.7684 9.49999C11.6295 9.63888 11.5601 9.81249 11.5601 10.0208C11.5601 10.2292 11.6295 10.4028 11.7684 10.5417C11.9073 10.6805 12.0809 10.75 12.2892 10.75C12.4976 10.75 12.6712 10.6805 12.8101 10.5417C13.2267 9.9861 13.5739 9.56943 13.8517 9.29166C14.1295 8.59721 14.3031 7.83332 14.3726 6.99999C14.442 6.16666 14.3031 5.47221 13.9559 4.91666C13.6087 4.3611 13.1573 3.87499 12.6017 3.45832Z" fill="white" fill-opacity="0.8"/>
</svg>
