<svg width="10" height="17" viewBox="0 0 10 17" fill="none" xmlns="http://www.w3.org/2000/svg">
<path d="M5.00001 8.37825C3.88277 8.37825 2.92896 7.98243 2.13856 7.19075C1.34818 6.39908 0.952992 5.44671 0.952992 4.3336C0.952992 3.21456 1.34818 2.25921 2.13856 1.46753C2.92897 0.675861 3.88278 0.280029 5.00001 0.280029C6.11725 0.280029 7.07106 0.675853 7.86146 1.46753C8.65184 2.25921 9.04702 3.21456 9.04702 4.3336C9.04702 5.44671 8.65183 6.39908 7.86146 7.19075C7.07105 7.98242 6.11724 8.37825 5.00001 8.37825ZM5.00001 2.3336C4.45328 2.3336 3.98529 2.52854 3.59603 2.91844C3.20678 3.30831 3.01214 3.78004 3.01214 4.3336C3.01214 4.88123 3.20678 5.34998 3.59603 5.73985C3.98529 6.12974 4.45328 6.32466 5.00001 6.32466C5.54674 6.32466 6.01473 6.12974 6.40398 5.73985C6.79324 5.34997 6.98787 4.88123 6.98787 4.3336C6.98787 3.78003 6.79324 3.3083 6.40398 2.91844C6.01473 2.52854 5.54674 2.3336 5.00001 2.3336ZM9.6621 8.86932C9.73937 9.03004 9.78392 9.17735 9.79581 9.31129C9.8077 9.44522 9.79432 9.56575 9.7557 9.67288C9.71707 9.78004 9.63834 9.89461 9.51946 10.0166C9.40062 10.1387 9.27432 10.2488 9.14063 10.347C9.00692 10.4452 8.82418 10.5687 8.59242 10.7175C7.90899 11.1521 6.97301 11.4318 5.78446 11.5568L6.43519 12.1997L8.81527 14.5836C8.99354 14.7681 9.08268 14.9884 9.08268 15.2443C9.08268 15.5003 8.99354 15.7175 8.81527 15.8961L8.70829 16.0122C8.52406 16.1908 8.30418 16.28 8.04865 16.28C7.7931 16.28 7.57323 16.1908 7.38901 16.0122C6.99084 15.6074 6.19748 14.8098 5.00893 13.6193L2.62885 16.0122C2.44462 16.1908 2.22474 16.28 1.96921 16.28C1.71366 16.28 1.49677 16.1908 1.31847 16.0122L1.21151 15.8961C1.02728 15.7175 0.935168 15.5003 0.935168 15.2443C0.935168 14.9884 1.02728 14.7681 1.21151 14.5836L4.23338 11.5568C3.02701 11.4318 2.0851 11.1521 1.4076 10.7175C1.17584 10.5687 0.993096 10.4452 0.859384 10.347C0.725696 10.2488 0.5994 10.1387 0.480552 10.0166C0.36168 9.89461 0.282944 9.78004 0.24432 9.67288C0.205696 9.56576 0.19232 9.44522 0.204208 9.31129C0.216096 9.17735 0.260656 9.03004 0.33792 8.86932C0.397344 8.75028 0.480544 8.6461 0.587504 8.55681C0.694488 8.46753 0.819264 8.40205 0.961896 8.3604C1.10452 8.31873 1.27093 8.32466 1.46109 8.37825C1.65125 8.43182 1.84439 8.53599 2.0405 8.69076C2.07022 8.71456 2.11479 8.7473 2.17422 8.78897C2.23364 8.83062 2.36142 8.90355 2.55752 9.00772C2.75364 9.11188 2.95866 9.20265 3.17261 9.28004C3.38655 9.35743 3.65991 9.42884 3.9927 9.49432C4.3255 9.5598 4.66126 9.59253 5 9.59253C5.54079 9.59253 6.05782 9.51663 6.55105 9.36485C7.04431 9.21306 7.40088 9.06277 7.62075 8.91397L7.9595 8.69075C8.15562 8.53599 8.34875 8.43181 8.53891 8.37825C8.72907 8.32465 8.89548 8.31872 9.0381 8.3604C9.18073 8.40204 9.30551 8.46752 9.4125 8.5568C9.51946 8.64608 9.60267 8.75027 9.6621 8.86932Z" fill="white"/>
</svg>
