<svg width="16" height="15" viewBox="0 0 16 15" fill="none" xmlns="http://www.w3.org/2000/svg">
<path d="M8.85223 1.24351C8.80607 1.23719 8.75127 1.23298 8.69215 1.22877C8.44991 1.21192 7.94592 1.17611 7.97548 0.668462C7.98845 0.448694 8.08943 0.0800781 8.62151 0.0800781C8.68047 0.0800781 8.73823 0.0839902 8.78871 0.0874142L8.79455 0.0877981C8.79839 0.0880461 8.80223 0.0883021 8.80607 0.0885421C8.84559 0.0910861 8.88183 0.0934221 8.91279 0.0934221C8.92599 0.0936301 8.93927 0.0929261 8.95239 0.0913101C8.96535 0.0892061 8.97839 0.0892061 8.99279 0.0892061C12.3353 0.198742 15.2322 3.15401 15.1904 6.41191C15.1904 6.45308 15.1922 6.49912 15.1942 6.54833L15.1947 6.55936C15.2055 6.77561 15.217 7.04453 15.0397 7.22497C14.9373 7.32888 14.7953 7.38152 14.6157 7.38152H14.5985C14.0278 7.37104 14.0188 6.85346 14.0145 6.60404C14.0138 6.53453 14.0123 6.46808 14.0051 6.41401C13.592 3.22773 12.0988 1.73009 8.85223 1.24351ZM13.6417 10.3747C13.71 10.428 13.7789 10.4805 13.8486 10.532C14.3706 10.9203 15.0209 11.4041 14.6648 12.3829C14.2589 13.4999 12.9358 14.4801 11.8341 14.4801H11.8154C11.7957 14.48 11.7761 14.4774 11.757 14.4724C11.7225 14.4633 11.6749 14.4527 11.6201 14.4408C11.4578 14.4057 11.2365 14.3572 11.0253 14.2688C8.68351 13.2865 6.66184 11.9798 5.01728 10.3838C3.33666 8.75352 2.00428 6.77772 1.05618 4.51193C0.728854 3.72836 0.714434 2.97497 1.01724 2.33322C1.33088 1.6697 1.95669 1.16698 2.8298 0.881214C3.15534 0.767622 3.51144 0.768614 3.8363 0.884022C4.59622 1.15574 6.3994 3.55072 6.4441 4.34624C6.48232 5.04766 5.92932 5.41348 5.63155 5.61007C5.10812 5.95693 5.01151 6.38241 5.30927 7.034C5.925 8.38136 7.00215 9.40232 8.50903 10.0679C8.66775 10.1438 8.84127 10.1862 9.01799 10.1922C9.27255 10.1922 9.47943 10.07 9.64959 9.81864C10.0346 9.252 10.5004 8.96416 11.0353 8.96416C11.4319 8.96416 11.8515 9.11936 12.3187 9.4388L12.5771 9.61456C12.9314 9.85576 13.2971 10.1046 13.6417 10.3747ZM8.46071 4.22055C8.59839 3.83157 8.99135 3.82174 9.17951 3.81753C9.67991 3.80559 10.2293 4.05977 10.6849 4.51053C11.1399 4.95989 11.4066 5.52441 11.4009 6.02152C11.4167 6.49827 11.2386 6.76157 10.8709 6.80369C10.848 6.80647 10.8249 6.80788 10.8017 6.80791C10.4968 6.80791 10.2581 6.56708 10.2228 6.22303C10.1471 5.48369 9.76711 5.08628 9.02815 4.97113C8.82479 4.93883 8.60055 4.87985 8.48375 4.69028C8.40375 4.56038 8.39583 4.40311 8.46071 4.22055ZM9.29767 1.97369C11.4974 2.23137 13.2732 4.09273 13.2559 6.12329L13.2552 6.12259C13.2553 6.13197 13.2549 6.14136 13.2537 6.15067C13.2481 6.18724 13.2501 6.24144 13.2521 6.29927L13.2523 6.30233C13.2595 6.51093 13.2745 6.94481 12.7873 7.0171C12.7382 7.02413 12.6906 7.02764 12.6473 7.02764C12.1244 7.02764 12.0945 6.55507 12.0801 6.3263L12.08 6.3248C12.0796 6.31961 12.0792 6.31445 12.0789 6.30932C12.0749 6.25402 12.0713 6.20221 12.0641 6.1598C11.7389 4.2507 11.0734 3.57455 9.09655 3.14414C9.05095 3.13434 8.99719 3.12698 8.94055 3.11921L8.92783 3.11746C8.71655 3.08937 8.45343 3.05427 8.30415 2.85697C8.21551 2.73972 8.18591 2.58876 8.21695 2.40971C8.24863 2.22645 8.36903 1.91752 8.82039 1.91752C8.93295 1.92027 9.04503 1.93201 9.15567 1.95262C9.20607 1.96105 9.25367 1.96877 9.29767 1.97369Z" fill="white"/>
</svg>
