<svg width="16" height="14" viewBox="0 0 16 14" fill="none" xmlns="http://www.w3.org/2000/svg">
<path d="M0.979909 6.45495C0.979909 6.45495 8.05695 3.64482 10.5119 2.65429C11.4519 2.25945 14.6419 0.993214 14.6419 0.993214C14.6419 0.993214 16.115 0.438869 15.9919 1.78485C15.9519 2.33821 15.625 4.27793 15.297 6.3752C14.8069 9.34389 14.275 12.5882 14.275 12.5882C14.275 12.5882 14.1929 13.499 13.4979 13.6575C12.8019 13.8151 11.6569 13.1032 11.4519 12.9447C11.2889 12.8265 8.38495 11.0453 7.32191 10.1748C7.03491 9.93756 6.70691 9.46205 7.36191 8.90869C8.83495 7.60205 10.5929 5.97937 11.6569 4.95044C12.1469 4.47585 12.6389 3.36716 10.5929 4.71314C7.68891 6.65286 4.82591 8.47245 4.82591 8.47245C4.82591 8.47245 4.17091 8.86829 2.94391 8.51181C1.71691 8.15637 0.285912 7.68277 0.285912 7.68277C0.285912 7.68277 -0.696088 7.08905 0.980909 6.45594L0.979909 6.45495Z" fill="white"/>
</svg>
