<svg width="13" height="17" viewBox="0 0 13 17" fill="none" xmlns="http://www.w3.org/2000/svg">
<path d="M1.55556 2.44V14.44L10.8889 8.44L1.55556 2.44ZM0 1.77334C0 1.47704 0.0740741 1.21778 0.222222 0.995558C0.37037 0.773335 0.62963 0.625188 1 0.551113C1.37037 0.477039 1.7037 0.514076 2 0.662225L12.2222 7.32889C12.3704 7.47704 12.5185 7.66222 12.6667 7.88445C12.8148 8.10667 12.8519 8.40297 12.7778 8.77334C12.7037 9.14371 12.5185 9.40297 12.2222 9.55111L2 16.2178C1.7037 16.3659 1.40741 16.44 1.11111 16.44C0.814815 16.44 0.555556 16.3289 0.333333 16.1067C0.111111 15.8844 0 15.5511 0 15.1067V1.77334Z" fill="white"/>
</svg>
