<svg width="16" height="13" viewBox="0 0 16 13" fill="none" xmlns="http://www.w3.org/2000/svg">
<path d="M14.4 2.3984C14.1376 2.472 13.8672 2.5176 13.6008 2.5752L13.5872 2.536C14.17 2.15328 14.6031 1.58145 14.8136 0.916797C14.764 0.940797 14.7392 0.950397 14.7168 0.963197C14.1933 1.26187 13.6285 1.48158 13.0408 1.6152C12.9544 1.6344 12.9072 1.6072 12.8488 1.5552C12.704 1.4272 12.5616 1.2912 12.4024 1.1848C11.3032 0.448797 9.87919 0.519197 8.87519 1.3824C8.12639 2.0264 7.76639 2.8624 7.81359 3.8696C7.82159 4.0408 7.84719 4.212 7.86639 4.404C5.39039 4.232 3.36559 3.1704 1.75679 1.244C1.3816 1.90485 1.26608 2.68178 1.43279 3.4232C1.59679 4.1896 2.01359 4.7928 2.62719 5.272C2.4033 5.25526 2.18135 5.21858 1.96399 5.1624C1.75279 5.1024 1.55039 5.0088 1.33519 4.9264C1.33679 5.6432 1.55119 6.2752 1.98319 6.8304C2.41519 7.3856 2.97919 7.732 3.65119 7.9208C3.44349 7.96553 3.23279 7.99495 3.02079 8.0088C2.81279 8.0216 2.60399 8.012 2.38079 8.012C2.86639 9.268 3.76959 9.9568 5.12799 10.08C3.83199 11.0824 2.39359 11.48 0.799988 11.3416C0.953588 11.4464 1.09919 11.552 1.25919 11.6272C1.68799 11.8288 2.11519 12.0368 2.55599 12.2072C3.23359 12.468 3.93999 12.6072 4.66239 12.656C5.62959 12.7224 6.58479 12.6528 7.52639 12.404C8.17637 12.2345 8.80258 11.9843 9.39039 11.6592C9.80719 11.4272 10.1984 11.1584 10.5696 10.856C11.023 10.4941 11.4304 10.0779 11.7824 9.6168C12.0848 9.212 12.3656 8.788 12.6224 8.352C12.9896 7.7296 13.2464 7.0544 13.4368 6.356C13.668 5.5112 13.7728 4.6472 13.7464 3.768C13.7448 3.7136 13.7856 3.6432 13.8272 3.604C14.024 3.4224 14.2328 3.256 14.4272 3.0712C14.72 2.78741 14.9793 2.47094 15.2 2.128C14.9232 2.2224 14.6648 2.3248 14.4 2.3992V2.3984Z" fill="white"/>
</svg>
